<?xml version="1.0" encoding="UTF-8"?>
<svg id="Layer_1" data-name="Layer 1" xmlns="http://www.w3.org/2000/svg" viewBox="0 0 73.13 72">
  <defs>
    <style>
      .cls-1 {
        fill: #009bd7;
      }

      .cls-1, .cls-2, .cls-3, .cls-4 {
        stroke-width: 0px;
      }

      .cls-2 {
        fill: #3fcfd5;
      }

      .cls-3 {
        fill: #7dc242;
      }

      .cls-4 {
        fill: #003359;
      }
    </style>
  </defs>
  <g>
    <g>
      <path class="cls-1" d="M23.62,61.54c4.06,3.93,8.56,7.4,13.45,10.29.39.23.89.23,1.28,0,14.15-8.38,25.19-21.46,30.98-37.09.22-.59-.33-1.21-.94-1.07-20.03,4.55-34.3,14.96-44.81,26.74-.29.32-.27.82.04,1.12Z"/>
      <path class="cls-2" d="M.12,41.84c3.31,6.99,6.97,12.88,11.84,18.77.32.39.92.38,1.24-.02,6.32-7.89,14.51-14.13,23.41-19.67,12.35-7.69,27.07-12.89,41.92-14.77.5-.06.92-.42,1.04-.91.49-2.11.6-2.5.94-4.53.07-.43-.2-.85-.63-.93C56.09,14.89,25.12,17.3.4,40.38c-.4.37-.51.97-.28,1.46Z"/>
    </g>
    <path class="cls-3" d="M73.03,12.99s.06,0,.1,0c.34,0,.6-.27.62-.62h0c.02-.66.04-1.43.05-1.98,0-.46-.23-.88-.63-1.1C62.7,3.38,50.6,0,37.71,0S12.73,3.39,2.25,9.31c-.39.22-.64.65-.63,1.1.06,5.79.81,11.41,2.15,16.79.1.41.59.59.94.35,4.72-3.2,9.74-5.95,14.99-8.2,5.21-2.24,10.63-3.98,16.17-5.21,6.05-1.35,12.23-2.13,18.43-2.29,6.26-.16,12.54.22,18.74,1.15h0Z"/>
  </g>
</svg>
