<svg viewBox="0 0 512 512"><g stroke-width=".925"><path d="M140.07 456.45c-2.969-3.187-5.09-9.02-5.063-13.92.014-2.526 2.618-11.153 7.44-24.659 4.08-11.426 7.473-21.801 7.54-23.055.087-1.663-1.894-4.108-7.328-9.039-4.096-3.717-10.049-9.823-13.229-13.568-3.18-3.745-6.662-7.183-7.738-7.639-1.207-.511-10.085 2.058-23.172 6.708-11.668 4.145-22.869 7.657-24.89 7.805-4.16.304-11.968-2.67-15.31-5.832-2.66-2.513-22.1-49.574-22.527-54.527-.423-4.913 2.986-12.321 7.296-15.857 1.962-1.61 12.58-7.004 23.597-11.986 11.859-5.363 20.356-9.826 20.828-10.942.44-1.036.538-5.895.22-10.798-.32-4.902-.288-13.409.07-18.902s.117-10.632-.535-11.419c-.652-.787-10.096-5.802-20.987-11.145-12.666-6.213-21.008-10.826-23.15-12.8-4.082-3.764-7.125-12.016-6.114-16.58.41-1.85 5.672-14.624 11.692-28.385l10.947-25.019 4.425-2.396c7.82-4.236 10.493-3.862 35.521 4.979 14.166 5.003 22.94 7.662 23.935 7.253.865-.356 4.945-4.223 9.067-8.594 4.122-4.372 10.137-10.195 13.366-12.941 3.23-2.746 6.197-5.76 6.594-6.697.397-.937-2.367-10.486-6.143-21.219-3.776-10.734-7.294-21.22-7.818-23.305-1.475-5.862-.28-11.84 3.332-16.662 2.726-3.641 5.497-5.067 27.428-14.11 13.417-5.534 26.313-10.205 28.658-10.38 5.44-.408 12.555 2.57 16.03 6.71 1.464 1.744 6.732 12.113 11.707 23.042 4.974 10.929 9.464 20.419 9.976 21.088.54.705 5.58 1.023 11.99.758 6.082-.253 14.985-.16 19.782.204 6.505.495 9.233.206 10.73-1.138 1.103-.991 6.394-10.706 11.758-21.588 10.314-20.928 12.485-24.007 18.865-26.75 7.096-3.05 10.104-2.272 37.469 9.692l24.925 10.898 2.818 4.256c4.848 7.321 4.487 10.443-4.041 34.978-4.129 11.876-7.678 22.582-7.888 23.79-.295 1.7 1.288 3.711 7.005 8.9 4.063 3.686 10.326 10.161 13.918 14.388 3.593 4.228 6.898 7.842 7.345 8.032.447.19 10.485-3.095 22.308-7.299 11.822-4.204 23.418-7.799 25.77-7.989 5.556-.449 12.318 2.443 16.272 6.96 1.878 2.145 6.806 12.85 12.57 27.301 9.892 24.806 10.408 27.383 7.067 35.302-2.363 5.6-6.41 8.216-28.196 18.216-11.845 5.438-21.697 10.262-21.89 10.722-.196.46-.11 6.13.19 12.601.3 6.472.185 15.307-.257 19.634-.549 5.377-.314 8.376.743 9.47.85.88 10.871 6.259 22.267 11.953 22.617 11.3 25.953 13.842 27.526 20.972 1.487 6.74.27 10.803-10.777 35.97l-10.566 24.077-4.555 2.836c-8.135 5.065-9.573 4.891-36.06-4.353-12.941-4.517-23.844-8.086-24.228-7.93-.385.156-3.655 3.518-7.267 7.472-3.611 3.954-10.042 10.142-14.289 13.75-4.246 3.61-7.831 7.184-7.966 7.943-.134.758 3.065 10.697 7.11 22.084 4.045 11.388 7.51 22.993 7.702 25.789.407 5.94-1.558 11.213-5.677 15.24-3.635 3.553-47.455 21.698-53.524 22.164-5.075.389-12.754-2.594-16.308-6.334-1.361-1.433-6.761-11.981-12-23.44-5.238-11.458-10.205-21.123-11.035-21.478-.83-.355-6.47-.466-12.534-.247-6.062.22-14.85.082-19.527-.306-6.465-.536-8.814-.28-9.795 1.067-.71.974-5.926 10.955-11.591 22.18-12.46 24.689-14.6 27.03-25.345 27.76-3.116.211-7.456-1.365-28.924-10.502-19-8.088-25.826-11.361-27.552-13.213zm85.071-97.009c23.812 7.276 46.715 6.258 69.814-3.101 17.606-7.134 31.467-17.637 43.689-33.104 7.662-9.697 17.917-33.935 19.599-46.325 5.104-37.601-8.504-72.647-37.597-96.827-6.779-5.635-8.795-6.75-23.877-13.222-14.446-6.199-17.573-7.218-25.416-8.279-39.161-5.298-77.961 11.524-100.13 43.415-19.921 28.651-23.892 64.832-10.715 97.636 6.9 17.176 18.738 32.651 33.789 44.168 4.292 3.284 10.724 7.14 20.125 12.064.751.394 5.576 2.002 10.723 3.575zm-6.625-49.451c-21.282-16.716-29.435-44.315-20.525-69.479 6.23-17.594 17.902-29.767 35.226-36.736 31.55-12.691 67.06 2.118 79.703 33.241 10.414 25.634 3.898 53.05-16.818 70.758-17.645 15.083-39.998 18.921-61.905 10.63-7.458-2.823-10.945-4.694-15.682-8.414zm36.984-12.376c7.695.33 21.22-3.674 27.428-9.047 4.381-3.791 5.34-5.265 8.908-13.68 3.795-8.95 1.482-9.802.813-16.761-1.35-14.047-8.085-23.73-20.787-29.887-10.204-4.946-17.38-5.383-27.824-1.695-13.24 4.676-22.178 15.192-24.185 28.455-1.737 11.48.903 20.895 8.326 29.693 6.925 8.209 15.847 12.428 27.322 12.921z" fill="#a5a5a5"/><path d="M140.07 446.67c-2.969-3.187-5.09-9.02-5.063-13.92.014-2.526 2.618-11.153 7.44-24.659 4.08-11.426 7.473-21.801 7.54-23.055.087-1.663-1.894-4.108-7.328-9.039-4.096-3.717-10.049-9.823-13.229-13.568-3.18-3.745-6.662-7.183-7.738-7.639-1.207-.512-10.085 2.058-23.172 6.708-11.668 4.145-22.869 7.657-24.89 7.805-4.16.304-11.968-2.67-15.31-5.832-2.66-2.513-22.1-49.575-22.527-54.528-.423-4.912 2.986-12.32 7.296-15.857 1.962-1.61 12.58-7.003 23.597-11.985 11.859-5.363 20.356-9.826 20.828-10.942.44-1.036.538-5.895.22-10.798-.32-4.902-.288-13.409.07-18.902s.117-10.632-.535-11.419c-.652-.787-10.096-5.802-20.987-11.145-12.666-6.213-21.008-10.826-23.15-12.8-4.082-3.764-7.125-12.016-6.114-16.58.41-1.85 5.672-14.625 11.692-28.385l10.947-25.019 4.425-2.396c7.82-4.236 10.493-3.862 35.521 4.979 14.166 5.003 22.94 7.662 23.935 7.253.865-.356 4.945-4.223 9.067-8.594 4.122-4.372 10.137-10.195 13.366-12.941 3.23-2.746 6.197-5.76 6.594-6.697.397-.937-2.367-10.486-6.143-21.219-3.776-10.734-7.294-21.22-7.818-23.305-1.475-5.862-.28-11.84 3.332-16.662 2.726-3.64 5.497-5.067 27.428-14.11 13.417-5.534 26.313-10.205 28.658-10.38 5.44-.408 12.555 2.57 16.03 6.71 1.464 1.744 6.732 12.113 11.707 23.042 4.974 10.929 9.464 20.419 9.976 21.088.54.705 5.58 1.023 11.99.758 6.082-.253 14.985-.16 19.782.204 6.505.495 9.233.206 10.73-1.138 1.104-.991 6.395-10.706 11.758-21.588 10.314-20.928 12.485-24.007 18.865-26.75 7.096-3.05 10.104-2.272 37.469 9.692l24.925 10.898 2.818 4.256c4.848 7.321 4.487 10.443-4.041 34.978-4.128 11.876-7.678 22.582-7.887 23.79-.296 1.7 1.287 3.711 7.004 8.9 4.063 3.686 10.326 10.161 13.918 14.388 3.593 4.228 6.898 7.842 7.345 8.031.447.19 10.485-3.094 22.308-7.298 11.822-4.204 23.418-7.799 25.77-7.989 5.556-.45 12.318 2.443 16.272 6.96 1.878 2.145 6.806 12.85 12.57 27.301 9.892 24.806 10.408 27.383 7.067 35.302-2.363 5.6-6.41 8.216-28.196 18.216-11.845 5.438-21.697 10.262-21.89 10.722-.196.46-.11 6.13.19 12.601.3 6.472.185 15.307-.257 19.634-.549 5.377-.314 8.376.743 9.47.85.88 10.871 6.259 22.267 11.953 22.617 11.3 25.953 13.842 27.526 20.972 1.487 6.74.27 10.803-10.777 35.97l-10.566 24.077-4.555 2.836c-8.135 5.065-9.573 4.891-36.06-4.353-12.941-4.517-23.844-8.086-24.228-7.93-.385.156-3.655 3.518-7.267 7.472-3.611 3.953-10.042 10.142-14.289 13.752-4.246 3.609-7.831 7.183-7.966 7.941-.134.76 3.065 10.697 7.11 22.084 4.045 11.388 7.51 22.993 7.702 25.79.407 5.939-1.558 11.212-5.677 15.24-3.635 3.553-47.455 21.697-53.524 22.163-5.075.39-12.754-2.593-16.308-6.333-1.361-1.433-6.761-11.981-12-23.44-5.238-11.458-10.205-21.123-11.035-21.478-.83-.356-6.47-.466-12.534-.247-6.062.22-14.85.082-19.527-.306-6.465-.536-8.814-.28-9.795 1.067-.71.974-5.926 10.955-11.591 22.18-12.46 24.689-14.599 27.03-25.345 27.76-3.116.211-7.456-1.365-28.924-10.502-19-8.088-25.826-11.361-27.552-13.213zm85.071-97.009c23.812 7.276 46.715 6.258 69.814-3.101 17.606-7.134 31.467-17.637 43.689-33.104 7.662-9.697 17.917-33.935 19.599-46.325 5.104-37.601-8.504-72.647-37.597-96.827-6.779-5.634-8.795-6.75-23.877-13.222-14.446-6.199-17.573-7.218-25.416-8.279-39.161-5.298-77.961 11.524-100.13 43.415-19.921 28.651-23.892 64.832-10.715 97.636 6.9 17.176 18.738 32.651 33.789 44.168 4.292 3.284 10.724 7.14 20.125 12.064.751.394 5.576 2.002 10.723 3.575zm-6.625-49.451c-21.282-16.716-29.435-44.315-20.525-69.479 6.23-17.594 17.902-29.767 35.226-36.736 31.55-12.691 67.06 2.118 79.703 33.241 10.414 25.634 3.898 53.05-16.818 70.758-17.645 15.083-39.998 18.921-61.905 10.63-7.458-2.823-10.945-4.694-15.682-8.414zm36.984-12.376c7.695.33 21.22-3.674 27.428-9.047 4.381-3.791 5.34-5.265 8.908-13.68 3.795-8.95 1.482-9.802.813-16.761-1.35-14.047-8.085-23.73-20.787-29.887-10.204-4.946-17.38-5.383-27.824-1.695-13.24 4.676-22.178 15.192-24.185 28.455-1.737 11.48.903 20.894 8.326 29.693 6.925 8.209 15.847 12.428 27.322 12.921z" fill="#dedede"/></g><ellipse transform="translate(-67.184 -59.107) scale(1.1613)" cx="278.78" cy="273.36" rx="137.76" ry="134.51" fill="#fff"/><path d="M256.64 100.92c-26.6-.016-53.164 6.051-76.533 17.977-44.001 22.455-72.367 56.695-87.807 105.79-3.468 11.026-5.957 16.66-6.012 39.643-.046 19.449 3.005 31.507 4.748 39.018 7.833 33.749 22.973 61.385 46.494 84.863 26.832 26.784 60.152 43.505 96.076 48.215 52.032 6.822 104.2-10.96 141.27-48.15 51.551-51.723 64.505-129.6 32.293-194.13-19.315-38.689-56.257-70.935-96.893-84.576-17.218-5.78-35.435-8.64-53.635-8.65z" fill-opacity=".992" opacity=".3"/><g transform="translate(78.126 80.97) scale(1.3969)"><circle transform="translate(1.1 -77.427) scale(.92216)" cx="137.3" cy="222.25" r="128.09" fill="#fff"/><path d="M111.31 247.3c-25.717-3.372-49.57-15.342-68.779-34.516-16.838-16.808-27.677-36.59-33.284-60.75-1.248-5.377-3.432-14.009-3.398-27.932.039-16.452 1.82-20.487 4.303-28.38C21.205 60.577 41.51 36.066 73.01 19.991c28.175-14.378 62.843-16.862 93.184-6.677 29.09 9.765 55.536 32.849 69.363 60.546 23.06 46.19 13.785 101.94-23.12 138.97a120.583 120.583 0 0 1-101.13 34.469zm-33.949-17.289c-.17-.745-.553-3.398-.848-5.896-.49-4.128-.271-4.808 2.399-7.478 3.822-3.822 7.223-3.827 23.36-.032 6.794 1.598 16.798 3.605 22.229 4.46 12.286 1.934 42.243 2.181 53.125.438 8.84-1.417 23.627-5.376 27.442-7.349 4.167-2.155 18.24-19.005 16.95-20.295-.308-.308-5.016.555-10.462 1.916-18.755 4.689-27.591.25-45.944-.304-31.761-.957-57.86-7.635-100.62-25.745-25.595-10.84-31.926-6.284-38.376.167-4.856 4.855-4.987 7.151-.84 14.714 9.45 17.234 25.357 33.536 42.556 43.609 6.41 3.754 9.622 4.393 9.027 1.796zm161.32-68.451c.518-1.19 1.57-5.19 2.338-8.89 1.271-6.13 1.255-6.835-.186-7.93-.87-.66-2.171-1.2-2.893-1.2-2.677 0-17.928-6.93-26.118-11.868-15.732-9.484-35.554-25.565-63.506-51.52-27.495-25.533-35.728-32.11-46.309-36.999-12.53-5.789-29.255-6.798-45.956-2.774-6.172 1.487-7.836 2.36-11.571 6.076-8.522 8.476-16.536 19.686-21.651 30.288-8.253 17.105-7.897 29.315 2.512 20.479 7.911-6.716 15.798-7.497 23.747-8.856 5.188-.887 12.903.296 19.063 1.668 12.713 2.832 21.778 12.074 54.697 35.439 37.266 26.45 43.886 26.428 69.28 36.54 10.967 4.368 39.238 1.576 43.43 1.664 1.371.028 2.533-.758 3.125-2.117zm-3.318-60.497c3.094-2.717 3.444-3.477 3.028-6.58-.742-5.532-6.888-19.649-12.437-28.567-6.547-10.522-22.658-27.03-32.947-33.762-15.19-9.936-29.663-15.748-46.934-18.846-15.386-2.76-47.19-.67-48.475 3.185-.267.8 1.385 1.143 5.503 1.143 25.697 0 47.64 7.152 64.271 20.95 9.872 8.189 16.786 15.966 28.095 31.597 19.021 26.29 26.48 33.667 34.268 33.89 1.171.033 3.704-1.322 5.628-3.011z" fill="#3568ed"/></g></svg>